<mxfile host="app.diagrams.net" agent="Mozilla/5.0 (Windows NT 10.0; Win64; x64) AppleWebKit/537.36 (KHTML, like Gecko) Chrome/126.0.0.0 Safari/537.36" version="24.7.5">
  <diagram name="第 1 页" id="jzX9igOxTLEChX7dev33">
    <mxGraphModel dx="1434" dy="738" grid="1" gridSize="10" guides="1" tooltips="1" connect="1" arrows="1" fold="1" page="1" pageScale="1" pageWidth="827" pageHeight="1169" math="0" shadow="0">
      <root>
        <mxCell id="0" />
        <mxCell id="1" parent="0" />
        <mxCell id="CxS_96QDTFtqO6RJArG--1" value="访问层" style="whiteSpace=wrap;html=1;aspect=fixed;dashed=1;fillColor=#fff2cc;strokeColor=#d6b656;" vertex="1" parent="1">
          <mxGeometry x="182" y="150" width="60" height="60" as="geometry" />
        </mxCell>
        <mxCell id="CxS_96QDTFtqO6RJArG--2" value="展示层" style="whiteSpace=wrap;html=1;aspect=fixed;dashed=1;fillColor=#dae8fc;strokeColor=#6c8ebf;" vertex="1" parent="1">
          <mxGeometry x="182" y="230" width="60" height="60" as="geometry" />
        </mxCell>
        <mxCell id="CxS_96QDTFtqO6RJArG--4" value="数据层" style="whiteSpace=wrap;html=1;aspect=fixed;dashed=1;fillColor=#f8cecc;strokeColor=#b85450;" vertex="1" parent="1">
          <mxGeometry x="182" y="310" width="60" height="60" as="geometry" />
        </mxCell>
        <mxCell id="CxS_96QDTFtqO6RJArG--5" value="" style="rounded=0;whiteSpace=wrap;html=1;fillColor=#fff2cc;strokeColor=#d6b656;" vertex="1" parent="1">
          <mxGeometry x="262" y="150" width="340" height="60" as="geometry" />
        </mxCell>
        <mxCell id="CxS_96QDTFtqO6RJArG--6" value="" style="rounded=0;whiteSpace=wrap;html=1;fillColor=#dae8fc;strokeColor=#6c8ebf;" vertex="1" parent="1">
          <mxGeometry x="262" y="230" width="340" height="60" as="geometry" />
        </mxCell>
        <mxCell id="CxS_96QDTFtqO6RJArG--8" value="" style="rounded=0;whiteSpace=wrap;html=1;fillColor=#f8cecc;strokeColor=#b85450;" vertex="1" parent="1">
          <mxGeometry x="262" y="310" width="340" height="60" as="geometry" />
        </mxCell>
        <mxCell id="CxS_96QDTFtqO6RJArG--9" value="&lt;p style=&quot;font-size: 12px;&quot; class=&quot;MsoNormal&quot;&gt;&lt;span style=&quot;font-family: 宋体; font-size: 12px;&quot;&gt;IntelliJ&lt;/span&gt;&lt;span style=&quot;font-family: 宋体; font-size: 12px;&quot;&gt;&amp;nbsp;&lt;/span&gt;&lt;span style=&quot;font-family: 宋体; font-size: 12px;&quot;&gt;IDEA&lt;/span&gt;&lt;/p&gt;" style="rounded=1;whiteSpace=wrap;html=1;fontSize=12;" vertex="1" parent="1">
          <mxGeometry x="290" y="165" width="130" height="30" as="geometry" />
        </mxCell>
        <mxCell id="CxS_96QDTFtqO6RJArG--10" value="&lt;p style=&quot;font-size: 12px;&quot; class=&quot;MsoNormal&quot;&gt;&lt;span style=&quot;font-family: 宋体; font-size: 12px;&quot;&gt;VS Code&lt;/span&gt;&lt;/p&gt;" style="rounded=1;whiteSpace=wrap;html=1;fontSize=12;" vertex="1" parent="1">
          <mxGeometry x="450" y="165" width="130" height="30" as="geometry" />
        </mxCell>
        <mxCell id="CxS_96QDTFtqO6RJArG--13" value="&lt;p style=&quot;font-size: 12px;&quot; class=&quot;MsoNormal&quot;&gt;&lt;span style=&quot;color: rgb(51, 51, 51); font-family: &amp;quot;Open Sans&amp;quot;, &amp;quot;Clear Sans&amp;quot;, &amp;quot;Helvetica Neue&amp;quot;, Helvetica, Arial, &amp;quot;Segoe UI Emoji&amp;quot;, sans-serif; font-size: 12px; orphans: 4; text-align: start; white-space-collapse: preserve; background-color: rgb(255, 255, 255);&quot;&gt;React &lt;/span&gt;&lt;br style=&quot;font-size: 12px;&quot;&gt;&lt;/p&gt;" style="rounded=1;whiteSpace=wrap;html=1;fontSize=12;" vertex="1" parent="1">
          <mxGeometry x="290" y="245" width="130" height="30" as="geometry" />
        </mxCell>
        <mxCell id="CxS_96QDTFtqO6RJArG--14" value="&lt;p style=&quot;font-size: 12px;&quot; class=&quot;MsoNormal&quot;&gt;&lt;span style=&quot;color: rgba(0, 0, 0, 0.88); font-family: -apple-system, BlinkMacSystemFont, &amp;quot;Segoe UI&amp;quot;, Roboto, &amp;quot;Helvetica Neue&amp;quot;, Arial, &amp;quot;Noto Sans&amp;quot;, sans-serif, &amp;quot;Apple Color Emoji&amp;quot;, &amp;quot;Segoe UI Emoji&amp;quot;, &amp;quot;Segoe UI Symbol&amp;quot;, &amp;quot;Noto Color Emoji&amp;quot;; font-size: 12px; font-weight: 600; text-align: start; background-color: rgb(255, 255, 255);&quot;&gt;Ant Design of React&lt;/span&gt;&lt;br style=&quot;font-size: 12px;&quot;&gt;&lt;/p&gt;" style="rounded=1;whiteSpace=wrap;html=1;fontSize=12;" vertex="1" parent="1">
          <mxGeometry x="450" y="245" width="130" height="30" as="geometry" />
        </mxCell>
        <mxCell id="CxS_96QDTFtqO6RJArG--15" value="&lt;p style=&quot;font-size: 12px;&quot; class=&quot;MsoNormal&quot;&gt;&lt;span style=&quot;color: rgb(51, 51, 51); font-family: &amp;quot;Open Sans&amp;quot;, &amp;quot;Clear Sans&amp;quot;, &amp;quot;Helvetica Neue&amp;quot;, Helvetica, Arial, &amp;quot;Segoe UI Emoji&amp;quot;, sans-serif; font-size: 12px; orphans: 4; text-align: start; white-space-collapse: preserve; background-color: rgb(255, 255, 255);&quot;&gt;LLM&lt;/span&gt;&lt;br style=&quot;font-size: 12px;&quot;&gt;&lt;/p&gt;" style="rounded=1;whiteSpace=wrap;html=1;fontSize=12;" vertex="1" parent="1">
          <mxGeometry x="367" y="325" width="130" height="30" as="geometry" />
        </mxCell>
      </root>
    </mxGraphModel>
  </diagram>
</mxfile>
